<svg width="1048" height="1034" viewBox="0 0 1048 1034" fill="none" xmlns="http://www.w3.org/2000/svg">
<path d="M468.408 2.55419C437.875 6.02086 423.475 8.55419 396.941 15.2209C332.141 31.3542 275.608 56.8209 220.408 94.4209C195.208 111.621 183.208 121.754 156.541 147.754C133.741 170.021 121.875 183.621 100.408 211.888C58.2746 267.221 28.1413 331.088 12.6746 397.754C3.3413 437.488 0.941295 459.221 0.141295 507.754C-1.0587 577.354 5.20796 620.821 25.7413 686.821C42.9413 742.288 71.8746 794.021 114.008 844.421C176.008 918.688 261.608 976.421 356.408 1008.02C396.808 1021.35 432.008 1028.82 475.075 1032.82C492.941 1034.42 563.075 1033.89 578.408 1032.02C611.475 1027.89 637.741 1022.55 664.808 1014.55L674.541 1011.62L670.675 1006.69C662.808 996.821 657.075 983.754 647.208 952.688C641.208 934.288 636.275 921.088 635.341 921.088C634.408 921.088 629.475 922.288 624.408 923.754C609.608 928.021 571.075 935.488 555.741 937.088C542.941 938.421 503.475 938.954 497.475 937.888C496.141 937.621 488.808 936.688 481.075 935.754C439.208 930.954 391.875 917.088 352.008 897.754C283.075 864.288 230.541 820.821 186.141 760.421C142.541 701.221 118.275 634.288 111.875 555.754C110.408 537.221 110.408 490.288 112.008 474.421C115.475 438.554 124.541 398.421 136.141 367.354C146.141 340.421 167.741 300.821 187.475 273.088C203.475 250.688 230.141 220.954 251.075 202.288C311.075 148.688 392.141 111.088 473.075 99.0875C508.541 93.8875 561.475 95.0875 593.741 101.754C641.875 111.754 691.208 130.821 731.075 154.821C791.075 190.821 845.741 244.288 878.808 299.354C908.141 348.288 928.941 406.954 934.941 458.421C938.408 487.888 938.541 490.688 938.675 512.421C938.675 538.554 937.875 551.221 934.275 580.154C932.675 592.421 931.608 602.688 931.875 602.954C935.208 605.754 1025.07 661.221 1026.94 661.488C1029.61 662.021 1040.01 616.288 1044.54 584.421C1047.34 563.754 1048.54 500.154 1046.54 473.488C1039.07 376.954 1000.81 280.288 938.541 201.088C893.608 143.754 846.008 103.354 781.075 67.2209C748.675 49.2209 725.741 39.2209 683.075 24.4209C656.808 15.3542 613.608 5.88753 584.408 2.95419C580.808 2.55419 572.675 1.75419 566.408 1.22086C546.008 -0.912473 491.741 -0.112473 468.408 2.55419Z" fill="white"/>
<path d="M510.541 141.088C502.408 142.821 489.208 149.221 480.808 155.488C471.875 162.154 454.008 180.554 446.141 191.088C428.275 215.088 408.941 251.754 396.941 284.421C389.875 303.888 381.075 332.954 381.075 336.954C381.075 339.754 382.808 339.888 428.941 343.088C464.541 345.621 580.541 345.488 617.075 343.088C647.075 341.088 672.008 338.421 673.475 337.088C675.075 335.621 662.941 295.621 654.141 273.888C625.475 202.821 589.475 156.954 551.608 143.088C544.675 140.554 519.075 139.354 510.541 141.088Z" fill="white"/>
<path d="M397.475 165.088C359.341 180.821 332.408 195.488 307.608 214.021C300.675 219.221 293.875 224.688 292.408 226.021C290.941 227.354 284.941 232.554 279.075 237.754C263.608 251.488 256.275 258.954 242.275 275.221C229.208 290.288 216.275 307.488 217.341 308.421C219.208 310.421 260.408 319.754 295.075 326.154C329.741 332.688 334.141 333.354 335.741 332.821C336.675 332.554 339.075 325.754 341.075 317.754C345.208 301.754 355.208 272.688 363.075 253.754C374.941 225.088 400.941 179.088 412.408 166.421C416.008 162.421 418.941 157.088 417.475 157.088C416.941 157.088 407.875 160.688 397.475 165.088Z" fill="white"/>
<path d="M646.141 170.021C661.475 190.021 677.075 217.754 690.141 248.421C698.541 268.288 713.075 311.088 715.875 324.421C716.808 328.821 717.608 332.554 717.741 332.821C717.875 332.954 734.941 330.154 755.741 326.421C792.941 319.888 823.475 313.354 830.808 310.554L834.675 309.088L830.275 303.354C809.341 276.288 777.608 243.221 755.741 225.621C732.808 207.088 702.008 187.888 673.741 174.421C657.475 166.554 641.075 159.754 638.941 159.754C638.541 159.754 641.875 164.421 646.141 170.021Z" fill="white"/>
<path d="M184.141 368.688C166.541 411.488 158.808 445.221 155.608 492.021C151.875 547.621 160.941 608.154 180.675 658.421C184.008 666.821 186.808 673.888 186.941 674.021C187.075 674.154 195.475 672.821 205.741 670.954C226.408 667.354 296.941 657.754 313.875 656.421C319.875 655.888 325.475 655.088 326.275 654.554C327.341 653.888 327.075 650.288 325.741 641.754C323.875 630.421 322.941 622.421 319.741 589.088C318.541 576.021 316.541 531.221 316.541 516.421C316.541 505.754 318.541 456.688 318.941 455.888C319.208 455.488 319.875 449.621 320.275 443.088C321.608 425.354 322.408 418.154 325.208 400.154C329.208 374.821 329.608 376.421 317.475 374.554C274.141 367.754 253.875 363.888 228.408 357.487C212.275 353.487 197.475 349.887 195.608 349.487C192.275 348.821 191.875 349.621 184.141 368.688Z" fill="white"/>
<path d="M839.075 354.554C823.875 358.421 783.475 366.954 773.075 368.421C769.741 368.821 759.875 370.421 751.075 371.888C742.275 373.354 733.075 374.821 730.808 375.221C725.875 376.021 725.875 375.621 727.741 385.221C730.275 398.554 734.141 433.621 735.741 457.088C736.675 469.888 737.741 481.354 738.275 482.421C739.208 484.154 780.941 509.488 869.608 562.288C881.208 569.088 890.808 574.421 891.075 574.288C891.208 574.021 891.875 567.754 892.408 560.421C892.941 553.088 893.608 545.221 893.875 543.088C894.675 537.354 894.541 489.354 893.741 483.754C893.341 481.221 892.408 474.021 891.741 467.754C888.141 437.888 877.475 399.621 864.008 367.754C858.941 355.754 856.008 350.288 854.541 350.554C854.141 350.554 847.208 352.421 839.075 354.554Z" fill="white"/>
<path d="M677.741 381.754C675.208 382.821 629.475 386.554 607.741 387.488C554.675 389.754 442.008 388.554 401.075 385.088C392.675 384.421 382.275 383.488 378.141 383.088C372.675 382.688 370.408 382.954 370.408 384.154C370.408 385.088 369.475 392.021 368.408 399.754C362.275 442.688 359.608 476.554 359.608 514.021C359.608 547.621 360.008 556.154 362.541 587.754C363.875 605.354 369.875 648.421 371.075 650.554C371.608 651.221 375.075 651.488 378.808 651.088C392.541 649.888 418.941 649.088 482.141 648.288C530.275 647.621 546.408 646.954 546.408 645.754C546.408 644.821 545.208 640.688 543.741 636.288C537.475 618.288 516.808 549.754 514.941 540.821C512.408 528.954 513.075 506.554 516.408 495.754C526.808 462.154 553.741 436.288 587.341 428.288C598.408 425.488 621.608 425.221 631.741 427.621C653.608 432.688 671.875 441.088 683.341 451.088C687.075 454.421 690.541 457.088 691.075 457.088C693.075 457.088 688.808 412.821 684.675 390.421C683.075 382.154 681.608 380.288 677.741 381.754Z" fill="white"/>
<path d="M600.408 485.621C587.741 489.621 579.875 496.154 574.941 507.088C569.208 519.354 570.008 523.754 587.875 580.421C597.208 609.754 657.741 795.354 664.408 815.088C666.941 822.421 679.208 859.888 691.875 898.421C704.408 936.954 715.608 970.154 716.675 972.421C719.341 977.621 726.141 984.821 730.675 987.221C739.208 991.621 754.675 988.421 760.008 981.088C761.341 979.221 768.941 958.554 776.941 935.088C784.941 911.621 791.875 891.221 792.408 889.754C794.408 884.688 798.808 881.088 802.808 881.088C807.608 881.088 802.008 874.954 862.541 947.621C888.408 978.821 911.475 1005.89 913.608 1007.89C918.275 1012.15 934.275 1017.75 945.075 1018.95C954.808 1020.15 971.875 1017.09 981.875 1012.29C992.141 1007.49 1005.87 993.754 1010.81 983.354C1016.41 971.754 1018.27 960.821 1017.07 948.021C1015.21 930.421 1012.41 925.754 982.408 890.421C974.541 881.221 958.141 861.754 945.741 847.088C933.475 832.421 917.741 813.754 910.941 805.621C900.408 793.088 898.408 790.021 898.408 786.154C898.408 781.488 901.875 777.088 906.808 775.354C908.141 774.821 918.008 772.954 928.808 771.088C960.675 765.754 986.275 760.021 990.808 757.488C996.941 753.888 1002.54 745.088 1003.34 738.021C1004.94 724.154 998.141 715.621 972.675 699.354C938.408 677.488 849.475 621.621 803.741 593.354C736.141 551.488 629.341 487.754 623.341 485.621C616.941 483.354 607.608 483.354 600.408 485.621Z" fill="white"/>
<path d="M443.608 692.288C443.341 692.554 430.541 693.088 415.075 693.621C388.275 694.421 381.475 694.954 380.008 696.288C378.808 697.488 388.808 729.754 396.408 749.088C418.941 806.554 449.875 855.488 476.941 876.288C494.275 889.621 509.208 894.021 532.408 892.688C547.208 891.754 556.941 888.954 569.608 881.888C578.808 876.688 599.475 858.954 606.275 850.421L610.808 844.688L607.875 835.221C602.808 819.354 576.008 736.421 568.541 713.754L561.475 692.421L502.808 692.154C470.408 692.021 443.741 692.154 443.608 692.288Z" fill="white"/>
<path d="M316.408 700.554C309.875 701.488 300.541 702.688 295.741 703.088C290.941 703.621 283.741 704.421 279.741 705.088C275.741 705.754 267.341 706.954 261.075 707.754C254.808 708.554 248.275 709.354 246.408 709.621C244.541 710.021 236.275 711.221 228.008 712.421C211.741 714.688 208.808 715.488 209.341 717.221C209.608 717.888 216.275 726.954 224.408 737.354C242.408 760.954 277.075 795.754 299.075 812.821C329.075 836.021 368.008 858.288 398.408 869.488C419.208 877.088 418.275 877.221 411.208 867.621C382.275 827.754 356.408 772.421 339.741 714.021C334.541 696.154 336.941 697.488 316.408 700.554Z" fill="white"/>
</svg>
