<svg width="40" height="27" viewBox="0 0 40 27" fill="none" xmlns="http://www.w3.org/2000/svg">
<path d="M16.0819 20.3546L28.12 4.04672C28.5185 3.50684 29.2557 3.34634 29.8426 3.67167C30.3708 3.96448 30.6299 4.56901 30.4967 5.14201L30.4376 5.33137L22.9915 24.1849C22.1835 26.2309 19.8697 27.2345 17.8237 26.4264C17.6631 26.363 17.5068 26.2892 17.3557 26.2055C15.4312 25.1387 14.7359 22.7137 15.8026 20.7892L15.9352 20.5674L16.0819 20.3546ZM32.552 4.94916C34.0038 6.12533 35.3177 7.52131 36.4428 9.12809C37.4519 10.5693 38.4236 12.3144 38.9824 13.7426C39.2728 14.4847 38.9066 15.3218 38.1644 15.6122C37.4223 15.9026 36.5852 15.5364 36.2948 14.7942C36.1076 14.3158 35.8578 13.7817 35.5689 13.2323L31.6256 15.5089C30.9355 15.9074 30.0529 15.6709 29.6544 14.9807C29.2892 14.3481 29.4574 13.5538 30.0196 13.1188L30.1826 13.0095L34.0658 10.7644L33.6224 10.1609C32.9993 9.34784 32.3175 8.6035 31.5874 7.9296L32.3188 6.07431C32.3917 5.88974 32.4472 5.70217 32.4859 5.51354L32.5315 5.23003L32.552 4.94916ZM27.4946 1.94526C27.2078 2.11181 26.9435 2.32362 26.7123 2.57755L26.4926 2.84541L25.4517 4.2556C24.1015 3.78626 22.6994 3.48258 21.2786 3.35046L21.2782 8.49307C21.2782 9.29002 20.6321 9.93609 19.8351 9.93609C19.1046 9.93609 18.5008 9.39321 18.4053 8.68888L18.3921 8.49307L18.3914 3.31884C15.3193 3.53728 12.2651 4.56491 9.55873 6.45993C7.98883 7.55919 6.62004 9.00395 5.48224 10.7018L9.48846 13.0147C10.1786 13.4131 10.4151 14.2957 10.0166 14.9859C9.65137 15.6185 8.87936 15.87 8.22161 15.6005L8.04545 15.514L4.05466 13.211C3.80883 13.7232 3.58056 14.2505 3.37043 14.7912C3.08171 15.534 2.24548 15.9021 1.50266 15.6134C0.759843 15.3247 0.391723 14.4884 0.680443 13.7456C2.23207 9.75357 4.68104 6.35213 7.90337 4.09583C13.8523 -0.0696279 21.2452 -0.634389 27.4946 1.94526Z" fill="white" fill-opacity="0.8"/>
</svg>
