<svg width="208" height="328" viewBox="0 0 208 328" fill="none" xmlns="http://www.w3.org/2000/svg">
<path d="M154 228H54C26.3858 228 4 250.386 4 278C4 305.614 26.3858 328 54 328H154C181.614 328 204 305.614 204 278C204 250.386 181.614 228 154 228Z" fill="#1AD1A5"/>
<path d="M104 204C159.228 204 204 159.228 204 104C204 48.7715 159.228 4 104 4C48.7715 4 4 48.7715 4 104C4 159.228 48.7715 204 104 204Z" fill="white"/>
<path d="M104 205.953C160.307 205.953 205.953 160.307 205.953 104C205.953 47.6928 160.307 2.04688 104 2.04688C47.6928 2.04688 2.04688 47.6928 2.04688 104C2.04688 160.307 47.6928 205.953 104 205.953Z" stroke="black" stroke-opacity="0.2" stroke-width="3.90625"/>
<path d="M104 148.8C128.742 148.8 148.8 128.742 148.8 104C148.8 79.2576 128.742 59.2 104 59.2C79.2577 59.2 59.2 79.2576 59.2 104C59.2 128.742 79.2577 148.8 104 148.8Z" fill="#FF9903"/>
</svg>
