<svg width="20" height="27" viewBox="0 0 20 27" fill="none" xmlns="http://www.w3.org/2000/svg">
<g clip-path="url(#clip0_6_41)">
<path d="M15.8333 24.4688C15.8333 22.1379 13.9688 20.25 11.6667 20.25H8.33333C6.03125 20.25 4.16667 22.1379 4.16667 24.4688H3.33333C2.875 24.4688 2.5 24.0891 2.5 23.625V3.375C2.5 2.91094 2.875 2.53125 3.33333 2.53125H11.6667V6.75C11.6667 7.6834 12.4115 8.4375 13.3333 8.4375H17.5V23.625C17.5 24.0891 17.125 24.4688 16.6667 24.4688H15.8333ZM3.33333 0C1.49479 0 0 1.51348 0 3.375V23.625C0 25.4865 1.49479 27 3.33333 27H16.6667C18.5052 27 20 25.4865 20 23.625V8.14746C20 7.25098 19.651 6.39141 19.026 5.75859L14.3073 0.986133C13.6823 0.35332 12.8385 0 11.9531 0H3.33333ZM13.3333 15.1875C13.3333 14.2924 12.9821 13.4339 12.357 12.801C11.7319 12.1681 10.8841 11.8125 10 11.8125C9.11594 11.8125 8.2681 12.1681 7.64298 12.801C7.01786 13.4339 6.66667 14.2924 6.66667 15.1875C6.66667 16.0826 7.01786 16.941 7.64298 17.574C8.2681 18.2069 9.11594 18.5625 10 18.5625C10.8841 18.5625 11.7319 18.2069 12.357 17.574C12.9821 16.941 13.3333 16.0826 13.3333 15.1875Z" fill="#F2F2F2"/>
</g>
<defs>
<clipPath id="clip0_6_41">
<rect width="20" height="27" fill="white"/>
</clipPath>
</defs>
</svg>
