<svg width="29" height="30" viewBox="0 0 29 30" fill="none" xmlns="http://www.w3.org/2000/svg">
<path d="M9.6998 23.0862C9.6998 23.2024 9.56532 23.2954 9.39577 23.2954C9.20282 23.3128 9.06835 23.2198 9.06835 23.0862C9.06835 22.97 9.20282 22.8771 9.37238 22.8771C9.54778 22.8597 9.6998 22.9526 9.6998 23.0862ZM7.88145 22.8248C7.84052 22.941 7.95746 23.0746 8.13286 23.1095C8.28488 23.1676 8.46028 23.1095 8.49536 22.9933C8.53044 22.8771 8.41935 22.7435 8.24395 22.6912C8.09194 22.6505 7.92238 22.7086 7.88145 22.8248ZM10.4657 22.7261C10.2962 22.7667 10.1792 22.8771 10.1968 23.0107C10.2143 23.1269 10.3663 23.2024 10.5417 23.1618C10.7113 23.1211 10.8282 23.0107 10.8107 22.8945C10.7931 22.7841 10.6353 22.7086 10.4657 22.7261ZM14.3129 0.464844C6.20343 0.464844 0 6.58203 0 14.6395C0 21.082 4.08105 26.595 9.91028 28.5353C10.6587 28.669 10.9218 28.21 10.9218 27.8324C10.9218 27.4722 10.9042 25.4855 10.9042 24.2655C10.9042 24.2655 6.81149 25.1369 5.95202 22.5343C5.95202 22.5343 5.28548 20.8438 4.32661 20.4081C4.32661 20.4081 2.9877 19.4961 4.42016 19.5135C4.42016 19.5135 5.87601 19.6297 6.67702 21.0123C7.95746 23.2547 10.1032 22.6099 10.9393 22.2265C11.0738 21.297 11.4538 20.6521 11.8748 20.2687C8.60645 19.9085 5.30887 19.438 5.30887 13.8495C5.30887 12.2519 5.75323 11.4502 6.68871 10.4278C6.53669 10.0502 6.03972 8.49329 6.84073 6.48327C8.0627 6.10567 10.875 8.05178 10.875 8.05178C12.0444 7.72646 13.3014 7.55799 14.5468 7.55799C15.7921 7.55799 17.0492 7.72646 18.2185 8.05178C18.2185 8.05178 21.0308 6.09986 22.2528 6.48327C23.0538 8.4991 22.5569 10.0502 22.4048 10.4278C23.3403 11.456 23.9133 12.2577 23.9133 13.8495C23.9133 19.4554 20.4696 19.9027 17.2012 20.2687C17.7391 20.7277 18.1952 21.5991 18.1952 22.9642C18.1952 24.922 18.1776 27.3444 18.1776 27.8208C18.1776 28.1984 18.4466 28.6573 19.1891 28.5237C25.0359 26.595 29 21.082 29 14.6395C29 6.58203 22.4224 0.464844 14.3129 0.464844ZM5.68306 20.5011C5.60706 20.5592 5.6246 20.6928 5.72399 20.8032C5.81754 20.8961 5.95202 20.9368 6.02802 20.8613C6.10403 20.8032 6.08649 20.6696 5.9871 20.5592C5.89355 20.4662 5.75907 20.4256 5.68306 20.5011ZM5.05161 20.0305C5.01069 20.1061 5.06915 20.199 5.18609 20.2571C5.27964 20.3152 5.39657 20.2978 5.4375 20.2164C5.47843 20.1409 5.41996 20.048 5.30302 19.9899C5.18609 19.955 5.09254 19.9724 5.05161 20.0305ZM6.94597 22.0986C6.85242 22.1742 6.8875 22.3484 7.02198 22.4588C7.15645 22.5924 7.32601 22.6099 7.40202 22.5169C7.47802 22.4414 7.44294 22.2671 7.32601 22.1567C7.19738 22.0231 7.02198 22.0057 6.94597 22.0986ZM6.27944 21.2447C6.18589 21.3028 6.18589 21.4538 6.27944 21.5874C6.37298 21.721 6.53085 21.7791 6.60685 21.721C6.7004 21.6455 6.7004 21.4945 6.60685 21.3609C6.525 21.2273 6.37298 21.1692 6.27944 21.2447Z" fill="white" fill-opacity="0.8"/>
</svg>
